#!OML:ASF I:\golf\golf\golf 2\Subject 1\2002-09-07\Subject1.ASF
:FULLY-SPECIFIED
:DEGREES
140
root -6.69557 17.4216 1.97726 -2.98838 55.9475 -16.7004
lowerback 3.53923 -7.355 -12.4356
upperback 2.92675 -9.94151 -2.03509
thorax 2.86404 -5.17001 4.63618
lowerneck -8.36844 17.7011 4.65199
upperneck 22.9357 27.9428 -12.7769
head 11.4024 11.9617 -1.34118
rclavicle 9.06458e-014 -1.90833e-014
rhumerus 0.857662 -7.60598 -88.7447
rradius 94.4055
rwrist -24.1713
rhand -60.56 45.2714
rfingers 7.12502
rthumb -32.6848 18.2053
lclavicle 9.06458e-014 -1.90833e-014
lhumerus 83.856 -56.3306 41.1758
lradius 28.3311
lwrist -5.25177
lhand -25.7545 3.16744
lfingers 7.12502
lthumb -179.217 213.146
rfemur -35.1401 3.82126 29.4203
rtibia 40.7418
rfoot -11.2669 21.6247
rtoes 23.6469
lfemur -7.26911 11.9573 4.13283
ltibia 24.9751
lfoot -14.3381 21.6263
ltoes -15.7744
141
root -6.68961 17.4066 2.00279 -2.70819 55.569 -16.3409
lowerback 3.60004 -7.53449 -12.428
upperback 2.85219 -10.191 -2.16296
thorax 2.76889 -5.28191 4.50276
lowerneck -8.49961 17.9328 4.62148
upperneck 22.7578 28.246 -12.8106
head 11.3914 12.0908 -1.28454
rclavicle -1.03368e-013 4.77083e-014
rhumerus 1.84879 -7.69277 -88.2118
rradius 95.2559
rwrist -22.969
rhand -59.9852 48.015
rfingers 7.12502
rthumb -32.1377 20.8368
lclavicle -1.03368e-013 4.77083e-014
lhumerus 84.8741 -55.6499 41.0089
lradius 28.5279
lwrist -5.77716
lhand -26.5977 2.5463
lfingers 7.12502
lthumb -180.032 212.526
rfemur -35.1708 3.98724 29.3571
rtibia 41.0229
rfoot -10.7903 21.9353
rtoes 25.6513
lfemur -6.83771 11.8038 4.07971
ltibia 24.8693
lfoot -15.1627 21.5212
ltoes -13.0678
142
root -6.68422 17.3962 2.03118 -2.35329 55.1911 -15.8776
lowerback 3.65261 -7.72588 -12.6134
upperback 2.78287 -10.4601 -2.21744
thorax 2.7367 -5.41248 4.53917
lowerneck -8.5222 18.1384 4.42979
upperneck 22.3835 28.503 -12.9098
head 11.2678 12.2054 -1.25748
rclavicle -1.08139e-013 -5.08889e-014
rhumerus 2.9401 -7.61719 -87.5456
rradius 95.9571
rwrist -21.5719
rhand -59.8847 48.4576
rfingers 7.12502
rthumb -32.0421 21.2601
lclavicle -1.08139e-013 -5.08889e-014
lhumerus 85.8734 -54.8556 40.8845
lradius 28.8333
lwrist -5.86899
lhand -26.9758 1.99461
lfingers 7.12502
lthumb -180.397 211.974
rfemur -35.1628 4.16498 29.2404
rtibia 41.2479
rfoot -10.2587 22.2178
rtoes 27.7138
lfemur -6.47056 11.9332 3.94039
ltibia 24.7806
lfoot -14.8292 21.7588
ltoes -14.8726
143
root -6.67819 17.3957 2.06021 -2.01129 54.8486 -15.4691
lowerback 3.66717 -7.88876 -12.7604
upperback 2.69568 -10.6873 -2.26384
thorax 2.69436 -5.52051 4.56259
lowerneck -8.37057 18.2776 4.29677
upperneck 21.8468 28.6321 -13.0778
head 11.0593 12.2869 -1.30418
rclavicle 1.145e-013 9.54166e-015
rhumerus 3.99533 -7.67373 -86.849
rradius 96.6255
rwrist -20.0805
rhand -60.1964 47.9262
rfingers 7.12502
rthumb -32.3388 20.7888
lclavicle 1.145e-013 9.54166e-015
lhumerus 87.246 -54.0796 40.3733
lradius 29.245
lwrist -5.7784
lhand -27.1834 1.92871
lfingers 7.12502
lthumb -180.597 211.908
rfemur -35.1405 4.47211 29.0998
rtibia 41.4104
rfoot -9.97632 22.3828
rtoes 29.0499
lfemur -6.23261 12.1704 3.78241
ltibia 24.7124
lfoot -13.6001 22.3326
ltoes -19.6099
144
root -6.67218 17.4006 2.09067 -1.83325 54.4885 -15.2847
lowerback 3.64649 -8.0416 -12.8225
upperback 2.62398 -10.8962 -2.23215
thorax 2.6845 -5.62276 4.61607
lowerneck -8.23644 18.4454 4.10991
upperneck 21.3115 28.8182 -13.2736
head 10.8595 12.3873 -1.34203
rclavicle -1.57835e-013 9.54166e-015
rhumerus 5.09011 -7.73538 -86.1191
rradius 97.3771
rwrist -18.6619
rhand -60.5048 47.6004
rfingers 7.12502
rthumb -32.6323 20.5234
lclavicle -1.57835e-013 9.54166e-015
lhumerus 88.178 -53.3017 40.4502
lradius 29.6532
lwrist -6.06671
lhand -27.4617 1.95047
lfingers 7.12502
lthumb -180.866 211.928
rfemur -35.1023 4.86836 29.0743
rtibia 41.5371
rfoot -10.1721 22.5321
rtoes 29.3404
lfemur -5.95717 12.2269 3.77021
ltibia 24.6197
lfoot -13.7849 22.4959
ltoes -18.5989
145
root -6.66698 17.3981 2.12019 -1.60331 54.135 -15.0634
lowerback 3.58515 -8.21357 -12.9734
upperback 2.56066 -11.1266 -2.14451
thorax 2.7398 -5.7424 4.76093
lowerneck -8.28321 18.619 3.84551
upperneck 20.9634 29.0702 -13.4609
head 10.7584 12.4867 -1.33321
rclavicle -7.95139e-015 5.40694e-014
rhumerus 6.27374 -7.67905 -85.3276
rradius 98.1397
rwrist -17.1954
rhand -60.724 45.4646
rfingers 7.12502
rthumb -32.8408 18.4309
lclavicle -7.95139e-015 5.40694e-014
lhumerus 88.8574 -52.483 40.884
lradius 29.9022
lwrist -6.6622
lhand -28.0287 1.56707
lfingers 7.12502
lthumb -181.414 211.542
rfemur -35.0979 5.24257 29.0363
rtibia 41.6521
rfoot -10.7793 22.5522
rtoes 28.3693
lfemur -5.64555 12.2014 3.77065
ltibia 24.5526
lfoot -14.7282 22.2844
ltoes -15.1864
146
root -6.66089 17.3882 2.14398 -1.29409 53.8437 -14.7585
lowerback 3.52374 -8.37211 -13.0919
upperback 2.48956 -11.3372 -2.11133
thorax 2.76697 -5.84807 4.83545
lowerneck -8.37202 18.7443 3.69619
upperneck 20.694 29.256 -13.6443
head 10.7046 12.5559 -1.33897
rclavicle -5.04913e-014 -1.90833e-014
rhumerus 7.44296 -7.69679 -84.4619
rradius 98.7827
rwrist -15.7503
rhand -60.7276 44.102
rfingers 7.12502
rthumb -32.8443 17.0691
lclavicle -5.04913e-014 -1.90833e-014
lhumerus 90.0325 -51.6947 40.7544
lradius 30.0682
lwrist -6.99413
lhand -28.5506 1.26284
lfingers 7.12502
lthumb -181.918 211.234
rfemur -35.1403 5.45271 28.9451
rtibia 41.7645
rfoot -11.0741 22.5993
rtoes 27.8117
lfemur -5.39922 12.1028 3.72231
ltibia 24.6025
lfoot -15.1112 22.1463
ltoes -14.6776
147
root -6.65379 17.3835 2.16763 -1.12496 53.5537 -14.5317
lowerback 3.55785 -8.49376 -13.1188
upperback 2.43206 -11.5103 -2.10583
thorax 2.72477 -5.92996 4.85335
lowerneck -8.44955 18.8864 3.50285
upperneck 20.4445 29.4247 -13.6567
head 10.6156 12.6327 -1.29437
rclavicle 6.2816e-014 -4.13472e-014
rhumerus 8.588 -7.83861 -83.5868
rradius 99.326
rwrist -14.3932
rhand -60.65 47.1161
rfingers 7.12502
rthumb -32.7704 20.0677
lclavicle 6.2816e-014 -4.13472e-014
lhumerus 91.2428 -50.9293 40.5115
lradius 30.4107
lwrist -6.93297
lhand -28.6705 0.903753
lfingers 7.12502
lthumb -182.033 210.874
rfemur -35.0841 5.50835 28.9292
rtibia 41.8618
rfoot -10.8872 22.915
rtoes 28.477
lfemur -5.22753 12.3935 3.7245
ltibia 24.7362
lfoot -14.9293 22.049
ltoes -15.3116
148
root -6.64767 17.3845 2.19181 -0.988434 53.3031 -14.3175
lowerback 3.66424 -8.59929 -13.1246
upperback 2.34727 -11.675 -2.11863
thorax 2.60348 -6.00162 4.85877
lowerneck -8.46465 19.0169 3.31653
upperneck 20.2522 29.5509 -13.5393
head 10.5088 12.7048 -1.22594
rclavicle -7.71285e-014 0
rhumerus 9.66855 -8.06442 -82.7449
rradius 99.8995
rwrist -13.006
rhand -60.722 50.9365
rfingers 7.12502
rthumb -32.8389 23.9024
lclavicle -7.71285e-014 0
lhumerus 92.2422 -50.2852 40.46
lradius 30.8932
lwrist -6.74668
lhand -28.7235 0.502955
lfingers 7.12502
lthumb -182.085 210.473
rfemur -34.9786 5.49014 28.9404
rtibia 41.9367
rfoot -10.8492 23.2337
rtoes 28.8108
lfemur -5.20659 13.0786 3.71354
ltibia 24.918
lfoot -14.0696 22.0664
ltoes -17.3939
149
root -6.64214 17.3852 2.21655 -0.751689 53.0858 -14.0648
lowerback 3.7054 -8.68743 -13.138
upperback 2.22514 -11.8096 -2.14904
thorax 2.47075 -6.05554 4.84581
lowerneck -8.37502 19.0941 3.22891
upperneck 19.9983 29.5959 -13.5086
head 10.3837 12.7506 -1.22013
rclavicle -9.85972e-014 3.18055e-015
rhumerus 10.649 -8.41439 -81.9075
rradius 100.504
rwrist -11.8025
rhand -60.8057 52.0772
rfingers 7.12502
rthumb -32.9185 25.0598
lclavicle -9.85972e-014 3.18055e-015
lhumerus 93.4536 -49.7322 40.2445
lradius 31.3169
lwrist -6.38168
lhand -28.779 0.516753
lfingers 7.12502
lthumb -182.138 210.486
rfemur -34.9386 5.66097 28.8744
rtibia 41.9849
rfoot -11.0077 23.2897
rtoes 28.7842
lfemur -5.24349 13.5085 3.65867
ltibia 25.1549
lfoot -13.3333 22.1198
ltoes -19.8441
150
root -6.63677 17.3812 2.24249 -0.586086 52.8291 -13.8888
lowerback 3.74077 -8.75918 -13.1718
upperback 2.09598 -11.9243 -2.13304
thorax 2.34448 -6.10142 4.89139
lowerneck -8.2689 19.1719 3.16197
upperneck 19.7463 29.6726 -13.5863
head 10.2837 12.8017 -1.24383
rclavicle -5.96354e-015 -3.18055e-014
rhumerus 11.5844 -8.75622 -81.0235
rradius 101.077
rwrist -10.8278
rhand -60.808 51.8966
rfingers 7.12502
rthumb -32.9207 24.8797
lclavicle -5.96354e-015 -3.18055e-014
lhumerus 94.45 -49.2214 40.3418
lradius 31.5972
lwrist -6.24132
lhand -28.8986 0.468749
lfingers 7.12502
lthumb -182.254 210.437
rfemur -34.8918 5.98965 28.8251
rtibia 42.0232
rfoot -11.1502 23.2853
rtoes 28.6795
lfemur -5.16717 13.7468 3.67127
ltibia 25.3768
lfoot -12.909 22.1155
ltoes -21.1688
151
root -6.63145 17.3781 2.26518 -0.38291 52.5955 -13.6286
lowerback 3.79833 -8.83569 -13.213
upperback 1.99099 -12.0462 -2.13316
thorax 2.23122 -6.15198 4.92502
lowerneck -8.25749 19.2445 3.2122
upperneck 19.6228 29.7986 -13.7888
head 10.2941 12.8509 -1.28999
rclavicle -9.30312e-014 0
rhumerus 12.5608 -9.04725 -80.0808
rradius 101.709
rwrist -9.88983
rhand -60.7952 51.7589
rfingers 7.12502
rthumb -32.9085 24.7394
lclavicle -9.30312e-014 0
lhumerus 95.1528 -48.7783 40.8038
lradius 31.8517
lwrist -6.38509
lhand -29.0193 0.301226
lfingers 7.12502
lthumb -182.37 210.268
rfemur -34.829 6.18249 28.7335
rtibia 42.0728
rfoot -11.3593 23.3832
rtoes 28.1461
lfemur -5.01549 13.7812 3.60583
ltibia 25.4855
lfoot -12.6648 22.1481
ltoes -21.3693
152
root -6.62595 17.381 2.28747 -0.111208 52.4224 -13.2805
lowerback 3.8805 -8.91937 -13.2598
upperback 1.84022 -12.1857 -2.14764
thorax 2.05677 -6.20555 4.95582
lowerneck -8.08995 19.2982 3.1917
upperneck 19.4368 29.8742 -13.9452
head 10.2297 12.8952 -1.34483
rclavicle 1.47101e-013 -2.8625e-014
rhumerus 13.4887 -9.35275 -79.0729
rradius 102.388
rwrist -8.89452
rhand -60.7739 51.0738
rfingers 7.12502
rthumb -32.8883 24.0501
lclavicle 1.47101e-013 -2.8625e-014
lhumerus 95.8012 -48.4078 41.3143
lradius 32.1838
lwrist -6.36103
lhand -28.937 0.132559
lfingers 7.12502
lthumb -182.291 210.1
rfemur -34.7702 6.29033 28.5875
rtibia 42.146
rfoot -11.546 23.5075
rtoes 27.8489
lfemur -4.84325 13.6657 3.4665
ltibia 25.4702
lfoot -13.049 22.0311
ltoes -19.4001
